<?xml version="1.0" encoding="UTF-8" standalone="no"?>
<svg
   xmlns:dc="http://purl.org/dc/elements/1.1/"
   xmlns:cc="http://creativecommons.org/ns#"
   xmlns:rdf="http://www.w3.org/1999/02/22-rdf-syntax-ns#"
   xmlns:svg="http://www.w3.org/2000/svg"
   xmlns="http://www.w3.org/2000/svg"
   xml:space="preserve"
   style="enable-background:new 0 0 173.978 173.978;"
   viewBox="0 0 173.978 173.978"
   y="0px"
   x="0px"
   id="Capa_1"
   version="1.1"><metadata
     id="metadata39"><rdf:RDF><cc:Work
         rdf:about=""><dc:format>image/svg+xml</dc:format><dc:type
           rdf:resource="http://purl.org/dc/dcmitype/StillImage" /><dc:title></dc:title></cc:Work></rdf:RDF></metadata><defs
     id="defs37" /><g
     id="g5" /><g
     id="g7" /><g
     id="g9" /><g
     id="g11" /><g
     id="g13" /><g
     id="g15" /><g
     id="g17" /><g
     id="g19" /><g
     id="g21" /><g
     id="g23" /><g
     id="g25" /><g
     id="g27" /><g
     id="g29" /><g
     id="g31" /><g
     id="g33" /><path
     style="fill:#ffffff"
     d="M 68.905148,158.04268 7.3004383,96.43795 c -4.81133,-4.811328 -4.81133,-12.610486 0,-17.421815 L 68.905148,17.411418 c 4.81133,-4.81133 12.61049,-4.81133 17.421814,0 4.811333,4.811328 4.811333,12.610485 0,17.421813 L 45.754098,75.4061 l 118.108572,0 c 6.80732,0 12.32094,5.513621 12.32094,12.320943 0,6.807322 -5.51362,12.320937 -12.32094,12.320937 l -118.108572,0 40.572864,40.57288 c 2.402587,2.40258 3.610039,5.55674 3.610039,8.71091 0,3.15415 -1.201293,6.30832 -3.610039,8.71091 -4.811324,4.81132 -12.610484,4.81132 -17.421814,0 z"
     id="path3369" /></svg>