<?xml version="1.0" encoding="UTF-8" standalone="no"?>
<svg
   xmlns:dc="http://purl.org/dc/elements/1.1/"
   xmlns:cc="http://creativecommons.org/ns#"
   xmlns:rdf="http://www.w3.org/1999/02/22-rdf-syntax-ns#"
   xmlns:svg="http://www.w3.org/2000/svg"
   xmlns="http://www.w3.org/2000/svg"
   xml:space="preserve"
   style="enable-background:new 0 0 173.978 173.978;"
   viewBox="0 0 173.978 173.978"
   y="0px"
   x="0px"
   id="Capa_1"
   version="1.1"><metadata
     id="metadata39"><rdf:RDF><cc:Work
         rdf:about=""><dc:format>image/svg+xml</dc:format><dc:type
           rdf:resource="http://purl.org/dc/dcmitype/StillImage" /><dc:title></dc:title></cc:Work></rdf:RDF></metadata><defs
     id="defs37" /><g
     id="g5" /><g
     id="g7" /><g
     id="g9" /><g
     id="g11" /><g
     id="g13" /><g
     id="g15" /><g
     id="g17" /><g
     id="g19" /><g
     id="g21" /><g
     id="g23" /><g
     id="g25" /><g
     id="g27" /><g
     id="g29" /><g
     id="g31" /><g
     id="g33" /><path
     style="fill:#ffffff"
     d="M 160.25341,66.694424 98.648681,5.089707 c -4.811328,-4.81132912 -12.610486,-4.81132912 -17.421815,0 L 19.622149,66.694424 c -4.81133,4.811329 -4.81133,12.610487 0,17.421811 4.811328,4.811333 12.610485,4.811333 17.421813,0 l 40.572869,-40.572863 0,118.108568 c 0,6.80732 5.513621,12.32094 12.320943,12.32094 6.807322,0 12.320936,-5.51362 12.320936,-12.32094 l 0,-118.108568 40.57288,40.572863 c 2.40258,2.402587 5.55674,3.610039 8.71091,3.610039 3.15415,0 6.30832,-1.201293 8.71091,-3.610039 4.81132,-4.811324 4.81132,-12.610482 0,-17.421811 z"
     id="path3369" /></svg>